<?xml version="1.0" standalone="no"?>
<!DOCTYPE svg PUBLIC "-//W3C//DTD SVG 20010904//EN"
 "http://www.w3.org/TR/2001/REC-SVG-20010904/DTD/svg10.dtd">
<svg version="1.0" xmlns="http://www.w3.org/2000/svg"
 width="68.000000pt" height="59.000000pt" viewBox="0 0 68.000000 59.000000"
 preserveAspectRatio="xMidYMid meet">

<g transform="translate(0.000000,59.000000) scale(0.100000,-0.100000)"
fill="#000000" stroke="none">
<path d="M268 520 c-17 -13 -30 -38 -38 -71 l-12 -51 -44 7 c-41 6 -44 5 -68
-32 -14 -21 -26 -42 -26 -48 0 -5 12 9 26 33 28 46 28 46 53 32 26 -13 15 -57
-18 -75 -14 -8 -22 -14 -18 -15 5 0 16 4 26 10 15 8 30 -6 93 -83 93 -115 91
-112 78 -139 -11 -22 -11 -22 5 -3 15 19 16 19 58 -4 23 -13 53 -21 67 -20 23
4 25 8 28 67 l3 63 -72 101 c-39 55 -80 103 -90 105 -21 6 -16 23 6 23 7 0 49
-49 94 -109 65 -89 87 -111 122 -125 23 -9 43 -16 44 -14 2 2 0 41 -4 88 -7
85 -7 85 -70 172 l-64 86 -61 7 c-34 4 -68 8 -77 11 -9 2 -27 -5 -41 -16z m39
-11 c26 -26 -23 -118 -64 -119 -16 0 -16 14 0 68 16 54 41 74 64 51z m3 -128
c0 -36 -77 -79 -115 -64 -26 9 -15 57 14 61 24 4 24 3 8 -22 -27 -40 -20 -41
17 -2 30 33 76 49 76 27z m56 -188 c84 -103 94 -118 75 -121 -36 -6 -103 46
-174 136 -59 75 -66 87 -50 93 40 16 54 6 149 -108z"/>
<path d="M80 295 c0 -9 6 -12 15 -9 8 4 15 7 15 9 0 2 -7 5 -15 9 -9 3 -15 0
-15 -9z"/>
<path d="M110 236 c0 -2 8 -10 18 -17 15 -13 16 -12 3 4 -13 16 -21 21 -21 13z"/>
<path d="M500 145 l0 -35 33 13 c39 16 38 28 -2 45 l-31 12 0 -35z"/>
</g>
</svg>
